<svg width="474" height="186" viewBox="0 0 474 186" fill="none" xmlns="http://www.w3.org/2000/svg">
<path d="M431.134 181.662H473.311V105.886C473.311 80.8547 449.993 56.8495 407.822 66.4537C407.822 66.4537 431.134 70.2245 431.134 92.1672V181.662ZM390.676 113.084C401.988 113.084 411.592 103.829 411.592 92.1672C411.592 80.8547 401.988 71.5943 390.676 71.5943C379.014 71.5943 369.759 80.8547 369.759 92.1672C369.759 103.829 379.014 113.084 390.676 113.084ZM401.988 184.751C408.848 183.376 417.764 180.631 423.249 175.834C412.962 177.891 403.019 171.376 400.275 161.433C396.16 146.001 406.446 128.172 415.019 120.969C408.848 120.969 403.363 121.313 397.535 123.027C386.217 126.797 375.243 133.657 369.759 144.287C363.587 154.917 364.613 169.662 373.53 178.917C380.733 186.464 392.045 186.808 401.988 184.751Z" fill="#2B2B2B"/>
<path d="M335.132 42.1047C346.444 42.1047 355.705 32.8495 355.705 21.5318C355.705 9.87553 346.444 0.615112 335.132 0.615112C323.47 0.615112 314.215 9.87553 314.215 21.5318C314.215 32.8495 323.47 42.1047 335.132 42.1047ZM313.871 181.662H356.392V67.4797H313.871V181.662Z" fill="#2B2B2B"/>
<path d="M258.33 181.662H300.507V105.886C300.507 80.8547 277.189 56.8495 235.017 66.4537C235.017 66.4537 258.33 70.2245 258.33 92.1672V181.662ZM217.872 113.084C229.184 113.084 238.788 103.829 238.788 92.1672C238.788 80.8547 229.184 71.5943 217.872 71.5943C206.21 71.5943 196.955 80.8547 196.955 92.1672C196.955 103.829 206.21 113.084 217.872 113.084ZM229.184 184.751C236.043 183.376 244.96 180.631 250.444 175.834C240.158 177.891 230.215 171.376 227.47 161.433C223.356 146.001 233.642 128.172 242.215 120.969C236.043 120.969 230.559 121.313 224.731 123.027C213.413 126.797 202.439 133.657 196.955 144.287C190.783 154.917 191.809 169.662 200.726 178.917C207.929 186.464 219.241 186.808 229.184 184.751Z" fill="#2B2B2B"/>
<path d="M170.221 105.886C181.538 105.886 191.137 96.6255 191.137 84.9693C191.137 73.6516 181.538 64.3912 170.221 64.3912C158.564 64.3912 149.304 73.6516 149.304 84.9693C149.304 96.6255 158.564 105.886 170.221 105.886ZM59.127 185.777L81.0697 141.198L43.0072 67.4797H0.835297L59.127 185.777ZM129.075 185.777L150.679 141.198L112.617 67.4797H70.7832L129.075 185.777Z" fill="#2B2B2B"/>
</svg>
